<?xml version="1.0" encoding="UTF-8"?>
<svg width="56px" height="32px" viewBox="0 0 56 32" version="1.1" xmlns="http://www.w3.org/2000/svg" xmlns:xlink="http://www.w3.org/1999/xlink">
    <!-- Generator: Sketch 42 (36781) - http://www.bohemiancoding.com/sketch -->
    <title>icLogoSmall</title>
    <desc>Created with Sketch.</desc>
    <defs></defs>
    <g id="Page-1" stroke="none" stroke-width="1" fill="none" fill-rule="evenodd">
        <g id="Home" transform="translate(-692.000000, -902.000000)" fill="#1C476D">
            <g id="footer" transform="translate(0.000000, 902.000000)">
                <g id="Group-11" transform="translate(221.000000, 0.000000)">
                    <path d="M503.184081,1.75663408 C498.849659,1.75663408 496.573093,22.0677777 495.501417,32.0011607 L492.346037,32.0011607 C493.334206,26.5672264 494.130507,20.4145336 494.925813,16.2978263 C494.486406,16.325662 494.047993,16.3534978 493.580751,16.3534978 C492.676089,16.3534978 491.770433,16.2978263 490.864778,16.2978263 L490.673904,17.2859951 C489.356677,24.0351681 486.886255,30.9215316 479.012717,30.9215316 C473.498258,30.9215316 471,27.0811935 471,23.1016767 C471,18.76626 473.936671,14.2409639 479.177743,14.2409639 C482.469319,14.2409639 484.252795,16.5453656 484.252795,19.3170101 C484.252795,20.8797881 483.676198,22.6095806 482.441484,24.145517 L480.438304,22.6095806 C481.508986,21.2078522 482.030906,19.7832587 482.030906,18.5743923 C482.030906,16.8734297 480.987066,15.6128682 479.012717,15.6128682 C475.500443,15.6128682 473.332237,19.480048 473.332237,23.1285183 C473.332237,26.4220829 475.088872,29.5496272 479.231426,29.5496272 C484.472499,29.5496272 486.722223,23.267697 488.03945,16.9827844 L488.120969,16.571213 C487.380339,16.7650691 486.667546,17.0384558 486.007441,17.5056986 L485.212134,15.5571968 C486.174455,15.0641065 487.270985,14.8702504 488.478857,14.844403 C489.109138,11.6333514 489.767254,8.23142624 490.646068,5.02136883 C487.737233,6.09105659 484.335308,6.33760172 484.335308,8.88954269 C484.335308,10.2336113 485.515345,10.6740125 486.968768,10.6740125 L486.722223,12.9774201 C483.676198,12.9774201 482.030906,11.2486217 482.030906,9.301114 C482.030906,7.92920962 482.853055,6.44795055 484.609689,5.48861163 C486.393165,4.49944869 489.081302,4.00635842 491.166994,3.29356463 C491.496053,2.2218886 491.852946,1.2068782 492.264518,0.219703526 L494.952655,0.658116446 C494.733946,1.94850186 494.157348,2.85415758 493.362041,3.53911563 C492.291359,7.57231566 491.798269,11.139267 491.112317,14.9259219 C492.155163,14.9815934 493.198009,15.089954 494.157348,15.089954 C494.514242,15.089954 494.8433,15.0641065 495.173353,15.0342825 C497.094019,5.48861163 499.068368,0 503.403785,0 C505.92789,0 507.053249,1.64727938 507.053249,4.11670725 C507.053249,4.36225825 507.053249,4.58196178 507.025414,4.82950105 L504.364118,4.82950105 C504.418795,4.33541665 504.447625,3.92384533 504.447625,3.59478711 C504.447625,2.00218508 503.870033,1.75663408 503.184081,1.75663408 Z M526.46679,19.6304604 L526.46679,19.6602844 C524.84834,24.047396 523.586785,26.1062467 521.803309,26.1062467 C520.503976,26.1062467 519.820012,25.0981952 519.589373,23.2719718 C518.670794,24.1428328 517.579235,24.6935828 516.189437,24.6935828 C514.041114,24.6935828 513.026103,22.9150778 512.844177,20.6792713 C511.759577,23.3524966 510.932458,24.5553983 509.521782,24.5553983 C508.314904,24.5553983 507.82082,23.0751333 507.82082,20.7428959 C507.82082,20.4705033 507.826785,20.1841928 507.83772,19.8869469 C507.207439,20.6633652 506.419091,21.2210741 505.598931,21.5113612 C504.666434,23.5125521 503.266694,24.6935828 501.511054,24.6935828 C499.618223,24.6935828 498.794087,22.7192335 498.794087,20.2219699 C498.794087,18.6830511 499.096303,16.956241 499.645065,15.3377915 L500.63224,15.5853307 C500.934456,13.4718027 502.086657,11.6326555 504.034165,11.6326555 C505.873312,11.6326555 506.832651,13.7451894 506.832651,16.2166056 C506.832651,17.558686 506.503593,18.9594202 506.146699,20.1662984 C506.843587,19.8441991 507.487785,19.1831003 507.976899,17.9523629 C508.125025,16.4909865 508.381511,14.872537 508.753317,13.2242634 C508.123036,13.2242634 507.655794,13.2242634 507.547433,13.1974218 L507.738307,11.9080305 C507.931169,11.9080305 508.396423,11.9348722 508.973021,11.9348722 C509.330909,10.0430359 509.686809,8.20388874 510.317089,5.43323839 L512.266585,5.43323839 C512.128401,7.684951 511.85402,9.7676609 511.386777,11.9617138 C511.826184,11.9617138 512.210914,11.9348722 512.458453,11.9080305 L512.210914,13.1974218 C512.100565,13.2242634 511.579639,13.2242634 511.086549,13.2242634 C510.839009,14.2671096 510.564629,15.3377915 510.234576,16.4631507 C509.961189,18.354987 509.823005,19.783557 509.823005,20.7975732 C509.823005,21.9497741 510.015867,22.5532132 510.371767,22.5532132 C511.11339,22.5532132 512.183078,19.9744306 513.006221,17.8618967 L513.007215,17.8618967 C513.586795,14.6995577 515.42296,11.6326555 517.945076,11.6326555 C519.315987,11.6326555 520.002933,12.6208243 520.002933,13.8823799 C520.002933,15.8587175 518.329806,18.4931715 515.064077,19.0140975 C515.0094,19.4535046 514.981564,19.8640818 514.981564,20.2478174 C514.981564,21.978604 515.447813,23.3485201 516.683521,23.3485201 C517.409238,23.3485201 518.711553,21.6077921 519.542649,20.2776414 C519.648027,18.4931715 519.942291,16.3349075 520.376727,13.8694561 C521.610447,6.98408681 523.339245,3.8833841 524.929859,3.8833841 C526.356441,3.8833841 526.77,5.03657908 526.77,6.43532506 C526.77,8.05278043 526.220245,10.0012823 525.945864,10.8522607 C524.821499,14.4450595 522.982351,17.1341909 521.884828,18.4792537 C521.748632,19.6602844 521.665124,20.7299721 521.665124,21.606798 C521.665124,23.444951 522.076696,24.0215485 522.707971,24.0215485 C523.586785,24.0215485 524.628637,22.3195918 525.808673,19.2755547 C525.945864,19.2755547 526.46679,19.4942641 526.46679,19.6304604 Z M503.678265,20.3850078 C504.281704,18.9315845 504.693276,17.0119125 504.693276,15.557495 C504.693276,14.3217869 504.391059,13.3902838 503.623588,13.3902838 C503.567916,13.3902838 503.486397,13.4161312 503.430726,13.4161312 C502.635419,13.5811574 502.004144,15.3646331 502.004144,17.1212672 C502.004144,18.6025262 502.443551,20.029108 503.678265,20.3850078 Z M502.086657,22.5800548 C502.443551,22.4716942 502.772609,22.0879587 503.101668,21.5382028 C501.948473,21.0997898 501.208837,20.0022664 500.824108,18.6830511 C500.76943,19.0956165 500.742589,19.5081819 500.742589,19.8640818 C500.742589,21.4825313 501.181001,22.6088847 501.866954,22.6088847 C501.948473,22.6088847 502.004144,22.6088847 502.086657,22.5800548 Z M517.725373,13.3336181 C516.655685,13.3336181 515.640675,15.5853307 515.201268,17.9434157 C517.259124,16.9274111 518.16478,15.0345807 518.16478,14.0195703 C518.16478,13.6099873 517.99876,13.3336181 517.725373,13.3336181 Z M525.286753,5.72153713 C524.546124,5.72153713 522.927674,11.6475675 522.132367,16.7504553 C523.503277,14.25518 525.534292,9.67222407 525.562128,6.32497623 C525.562128,5.94124066 525.424938,5.72153713 525.286753,5.72153713 Z M500.002655,26.7333462 C500.686619,26.7333462 501.195615,27.2502956 501.195615,27.9690542 L501.195615,28.2603354 L500.452997,28.2603354 L500.452997,28.011802 C500.452997,27.721515 500.27803,27.4739757 499.994702,27.4739757 C499.62389,27.4739757 499.535412,27.729468 499.535412,28.0794031 L499.535412,30.727775 C499.535412,31.0260151 499.65272,31.2576482 499.987743,31.2576482 C500.192534,31.2576482 500.452997,31.1423287 500.452997,30.7347339 L500.452997,30.4802357 L501.195615,30.4802357 L501.195615,30.8003467 C501.195615,31.4405688 500.678666,32.0012601 500.016573,32.0012601 C499.448923,32.0012601 498.794783,31.724891 498.794783,30.7784758 L498.794783,27.9243182 C498.794783,27.2502956 499.280914,26.7333462 500.002655,26.7333462 Z M504.349902,26.7336444 C504.954335,26.7336444 505.594557,27.1541629 505.594557,27.9991765 L505.594557,30.7350322 C505.594557,31.5780574 504.954335,32.0005642 504.349902,32.0005642 C503.746463,32.0005642 503.105246,31.5780574 503.105246,30.7350322 L503.105246,27.9991765 C503.105246,27.1541629 503.746463,26.7336444 504.349902,26.7336444 Z M504.851939,30.7350322 L504.851939,27.9991765 C504.851939,27.6422825 504.619312,27.4742739 504.349902,27.4742739 C504.080492,27.4742739 503.847864,27.6422825 503.847864,27.9991765 L503.847864,30.7350322 C503.847864,31.090932 504.080492,31.2569523 504.349902,31.2569523 C504.619312,31.2569523 504.851939,31.090932 504.851939,30.7350322 Z M508.299396,26.7759945 L508.299396,31.214801 L509.769719,31.214801 L509.769719,31.9574188 L507.557772,31.9574188 L507.557772,26.7759945 L508.299396,26.7759945 Z M512.728559,26.7756962 C513.688892,26.7756962 514.044792,27.4079652 514.044792,28.0859643 L514.044792,28.2758439 C514.044792,28.8285821 513.862866,29.0313854 513.535796,29.2361769 C513.883742,29.4031914 514.044792,29.7163434 514.044792,30.2541697 L514.044792,30.5454509 C514.044792,31.4481242 513.615326,31.9571206 512.654993,31.9571206 L511.642965,31.9571206 L511.642965,26.7756962 L512.728559,26.7756962 Z M512.720606,28.9011539 C513.215685,28.9011539 513.345916,28.6456616 513.345916,28.1744422 C513.345916,27.7151525 513.178902,27.473578 512.691776,27.473578 L512.385583,27.473578 L512.385583,28.9011539 L512.720606,28.9011539 Z M512.705694,31.2145028 C513.302174,31.2145028 513.345916,30.8506499 513.345916,30.3416535 C513.345916,29.8256981 513.251473,29.5562879 512.712653,29.5562879 L512.385583,29.5562879 L512.385583,31.2145028 L512.705694,31.2145028 Z M516.016557,31.9573194 L516.016557,26.7758951 L518.228504,26.7758951 L518.228504,27.4737769 L516.759174,27.4737769 L516.759174,28.9957954 L518.040613,28.9957954 L518.040613,29.6946713 L516.759174,29.6946713 L516.759174,31.2147016 L518.228504,31.2147016 L518.228504,31.9573194 L516.016557,31.9573194 Z M522.605972,28.2972177 C522.605972,28.8936979 522.438958,29.3301225 521.966745,29.5935679 L522.766028,31.9576177 L521.979668,31.9576177 L521.287751,29.7446763 L520.845362,29.7446763 L520.845362,31.9576177 L520.102744,31.9576177 L520.102744,26.7761933 L521.295704,26.7761933 C522.176507,26.7761933 522.605972,27.2931428 522.605972,28.2972177 Z M521.266874,29.0895422 C521.783824,29.0895422 521.864349,28.7982611 521.864349,28.2823057 C521.864349,27.7574032 521.775871,27.4740751 521.230092,27.4740751 L520.845362,27.4740751 L520.845362,29.0895422 L521.266874,29.0895422 Z M524.308923,27.4740751 L524.308923,26.7761933 L526.769404,26.7761933 L526.769404,27.4740751 L525.910473,27.4740751 L525.910473,31.9576177 L525.167855,31.9576177 L525.167855,27.4740751 L524.308923,27.4740751 Z" id="icLogoSmall"></path>
                </g>
            </g>
        </g>
    </g>
</svg>