<?xml version="1.0" encoding="UTF-8"?>
<svg width="88px" height="50px" viewBox="0 0 88 50" version="1.1" xmlns="http://www.w3.org/2000/svg" xmlns:xlink="http://www.w3.org/1999/xlink">
    <!-- Generator: Sketch 42 (36781) - http://www.bohemiancoding.com/sketch -->
    <title>icLogo</title>
    <desc>Created with Sketch.</desc>
    <defs></defs>
    <g id="Page-1" stroke="none" stroke-width="1" fill="none" fill-rule="evenodd">
        <g id="Home" transform="translate(-220.000000, -16.000000)" fill="#FFFFFF">
            <g id="Header" transform="translate(220.000000, 16.000000)">
                <path d="M50.2856468,2.74463267 C43.5133783,2.74463267 39.9563841,34.479545 38.2819563,49.9998447 L33.3518691,49.9998447 C34.895822,41.5096567 36.1399934,31.8964526 37.3826114,25.4643508 C36.6960649,25.5078425 36.0110717,25.5513341 35.2810336,25.5513341 C33.8675556,25.5513341 32.4525242,25.4643508 31.0374929,25.4643508 L30.7392646,27.0083038 C28.6811784,37.5534714 24.821296,48.3129906 12.5193771,48.3129906 C3.90337402,48.3129906 -2.84217094e-14,42.3126986 -2.84217094e-14,36.0949484 C-2.84217094e-14,29.3211267 4.58836723,22.2506299 12.7772203,22.2506299 C17.9201059,22.2506299 20.7066769,25.8511157 20.7066769,30.1816397 C20.7066769,32.6233842 19.8057788,35.3260785 17.8766142,37.7258847 L14.74677,35.3260785 C16.4196445,33.1359642 17.2351127,30.9101245 17.2351127,29.0213451 C17.2351127,26.3636957 15.6041764,24.394146 12.5193771,24.394146 C7.03166502,24.394146 3.6439775,30.4363764 3.6439775,36.1368868 C3.6439775,41.2828789 6.38861016,46.1694745 12.861097,46.1694745 C21.0499501,46.1694745 24.565006,36.354345 26.6230922,26.5345557 L26.7504605,25.8915008 C25.5932725,26.194389 24.479576,26.6215389 23.448203,27.351577 L22.2055849,24.3071628 C23.7091528,23.5367396 25.4224125,23.2338514 27.3096387,23.1934663 C28.2944135,18.1763958 29.32268,12.861097 30.6957729,7.84557985 C26.1508973,9.51690116 20.8355985,9.90211276 20.8355985,13.8893635 C20.8355985,15.989388 22.6793331,16.6774878 24.9502176,16.6774878 L24.565006,20.2764204 C19.8057788,20.2764204 17.2351127,17.5752794 17.2351127,14.5324184 C17.2351127,12.3889022 18.5196691,10.074526 21.2643018,8.57561797 C24.0508728,7.03011174 28.2509219,6.25968854 31.5096878,5.14599209 C32.023821,3.47156424 32.5814458,1.88567292 33.2245007,0.343273242 L37.4245498,1.02826645 C37.0828298,3.04441428 36.1819317,4.45944561 34.9393136,5.52965042 C33.2664391,11.8312773 32.4960159,17.4044194 31.4242578,23.3208347 C33.0536407,23.4078179 34.6830237,23.5771246 36.1819317,23.5771246 C36.7395566,23.5771246 37.2536898,23.5367396 37.7693763,23.4901414 C40.7702989,8.57561797 43.8550983,7.10542736e-15 50.6289201,7.10542736e-15 C54.5726792,7.10542736e-15 56.3309837,2.57377268 56.3309837,6.4321018 C56.3309837,6.81576013 56.3309837,7.15903337 56.2874921,7.54579824 L52.1293814,7.54579824 C52.2148114,6.77382177 52.2598563,6.13076691 52.2598563,5.61663369 C52.2598563,3.128291 51.3574049,2.74463267 50.2856468,2.74463267 Z M86.6634462,30.6713865 L86.6634462,30.7179847 C84.1347184,37.5725767 82.1636155,40.7894042 79.3770445,40.7894042 C77.3469172,40.7894042 76.2782657,39.2143858 75.9179064,36.361024 C74.4826826,37.7216908 72.7771893,38.5822038 70.6057142,38.5822038 C67.2490921,38.5822038 65.6632008,35.8033992 65.3789519,32.3100891 C63.6843315,36.4868391 62.3920087,38.366299 60.1879149,38.366299 C58.302242,38.366299 57.5302655,36.0534761 57.5302655,32.4094986 C57.5302655,31.9839019 57.5395852,31.5365594 57.5566712,31.0721309 C56.5718963,32.2852368 55.3401512,33.1566227 54.0587013,33.6101783 C52.6017316,36.736916 50.4147238,38.5822038 47.6716444,38.5822038 C44.7142134,38.5822038 43.4265504,35.4974045 43.4265504,31.5955837 C43.4265504,29.1911178 43.8987453,26.4930833 44.7561517,23.9643555 L46.2985514,24.3511204 C46.7707463,21.0488628 48.5709892,18.1753086 51.6138502,18.1753086 C54.4874045,18.1753086 55.9863126,21.4760128 55.9863126,25.3374485 C55.9863126,27.4343665 55.4721793,29.6229275 54.9145545,31.5086005 C56.0033986,31.0053402 57.0099192,29.9724139 57.7741293,28.0494624 C58.0055669,25.7661517 58.4063113,23.2374239 58.9872352,20.662098 C58.0024604,20.662098 57.2724223,20.662098 57.1031156,20.6201596 L57.4013439,18.6055651 C57.7026788,18.6055651 58.4296103,18.6475034 59.3305084,18.6475034 C59.8896866,15.6916257 60.4457582,12.8180714 61.430533,8.48910069 L64.4765005,8.48910069 C64.2605956,12.0072631 63.8318924,15.2613692 63.1018543,18.6894418 C63.7884008,18.6894418 64.3895173,18.6475034 64.7762821,18.6055651 L64.3895173,20.6201596 C64.217104,20.662098 63.4031892,20.662098 62.632766,20.662098 C62.2460011,22.2914809 61.8172979,23.9643555 61.3016114,25.7226601 C60.8744614,28.6785378 60.6585565,30.9105905 60.6585565,32.4949286 C60.6585565,34.2951715 60.9598914,35.238008 61.515963,35.238008 C62.6747043,35.238008 64.3460256,31.2088189 65.6321353,27.9081146 L65.6336886,27.9081146 C66.5392465,22.9671545 69.408141,18.1753086 73.3487936,18.1753086 C75.4907565,18.1753086 76.5640678,19.7192615 76.5640678,21.6903644 C76.5640678,24.7782703 73.9499101,28.8944427 68.8474096,29.7083575 C68.7619796,30.394904 68.718488,31.0364056 68.718488,31.6359688 C68.718488,34.3402164 69.4469728,36.480626 71.3776907,36.480626 C72.5115796,36.480626 74.5463667,33.7608457 75.8449026,31.682567 C76.0095495,28.8944427 76.4693182,25.5222879 77.1480983,21.6701719 C79.0757096,10.9122059 81.7768506,6.06754872 84.2620868,6.06754872 C86.491033,6.06754872 87.1371944,7.86934492 87.1371944,10.0547995 C87.1371944,12.581974 86.2782346,15.6263882 85.8495314,16.9559896 C84.0927801,22.5695167 81.2192258,26.7711191 79.5044128,28.8726969 C79.2916145,30.7179847 79.1611396,32.389306 79.1611396,33.7592925 C79.1611396,36.6312935 79.8041945,37.5321916 80.7905226,37.5321916 C82.1636155,37.5321916 83.7914452,34.8729889 85.6351798,30.1168682 C85.8495314,30.1168682 86.6634462,30.4585882 86.6634462,30.6713865 Z M51.0577786,31.8503204 C52.0006151,29.5794359 52.6436699,26.5800665 52.6436699,24.3076287 C52.6436699,22.3769109 52.1714751,20.9214945 50.9723486,20.9214945 C50.8853654,20.9214945 50.757997,20.9618796 50.6710138,20.9618796 C49.4283957,21.2197228 48.4420676,24.0062939 48.4420676,26.7509265 C48.4420676,29.0653027 49.1286141,31.2942489 51.0577786,31.8503204 Z M48.5709892,35.2799463 C49.1286141,35.1106396 49.6427473,34.5110764 50.1568805,33.6521166 C48.3550843,32.9671234 47.1994495,31.2523105 46.598333,29.1911178 C46.512903,29.8357259 46.4709647,30.480334 46.4709647,31.0364056 C46.4709647,33.5651334 47.1559579,35.3249912 48.227716,35.3249912 C48.3550843,35.3249912 48.4420676,35.3249912 48.5709892,35.2799463 Z M73.0055203,20.832958 C71.334199,20.832958 69.7483077,24.3511204 69.0617612,28.035483 C72.2770355,26.4480384 73.6920668,23.4906074 73.6920668,21.904716 C73.6920668,21.2647677 73.4326703,20.832958 73.0055203,20.832958 Z M84.8197117,8.93954974 C83.6625236,8.93954974 81.1337958,18.1986076 79.8911777,26.1715559 C82.0331406,22.2728417 85.2064765,15.112255 85.2499682,9.8823862 C85.2499682,9.28282298 85.0356165,8.93954974 84.8197117,8.93954974 Z M45.3148639,41.7692085 C46.3835154,41.7692085 47.178791,42.5769103 47.178791,43.6999264 L47.178791,44.1550352 L46.0184964,44.1550352 L46.0184964,43.7667171 C46.0184964,43.3131615 45.7451204,42.9263966 45.3024377,42.9263966 C44.723067,42.9263966 44.5848258,43.3255877 44.5848258,43.8723396 L44.5848258,48.0102578 C44.5848258,48.4762396 44.7681119,48.8381521 45.2915648,48.8381521 C45.611539,48.8381521 46.0184964,48.6579725 46.0184964,48.0211307 L46.0184964,47.6234929 L47.178791,47.6234929 L47.178791,48.1236467 C47.178791,49.1239543 46.3710892,50 45.3366097,50 C44.4496911,50 43.4276377,49.5681902 43.4276377,48.0894747 L43.4276377,43.6300291 C43.4276377,42.5769103 44.187188,41.7692085 45.3148639,41.7692085 Z M52.1071696,41.7696745 C53.0515593,41.7696745 54.0518669,42.4267088 54.0518669,43.7469905 L54.0518669,48.0215967 C54.0518669,49.3387719 53.0515593,49.9989127 52.1071696,49.9989127 C51.1643331,49.9989127 50.1624723,49.3387719 50.1624723,48.0215967 L50.1624723,43.7469905 C50.1624723,42.4267088 51.1643331,41.7696745 52.1071696,41.7696745 Z M52.8915723,48.0215967 L52.8915723,43.7469905 C52.8915723,43.1893657 52.5281065,42.9268626 52.1071696,42.9268626 C51.6862327,42.9268626 51.3227669,43.1893657 51.3227669,43.7469905 L51.3227669,48.0215967 C51.3227669,48.5776683 51.6862327,48.8370648 52.1071696,48.8370648 C52.5281065,48.8370648 52.8915723,48.5776683 52.8915723,48.0215967 Z M58.2780109,41.8358439 L58.2780109,48.7712061 L60.5753011,48.7712061 L60.5753011,49.9315007 L57.1192696,49.9315007 L57.1192696,41.8358439 L58.2780109,41.8358439 Z M65.1983063,41.835378 C66.6987676,41.835378 67.2548392,42.8232593 67.2548392,43.8825912 L67.2548392,44.1792663 C67.2548392,45.0428859 66.9705903,45.3597535 66.4595637,45.6797276 C67.0032091,45.9406774 67.2548392,46.4299583 67.2548392,47.2702788 L67.2548392,47.7253876 C67.2548392,49.1357591 66.5838255,49.9310347 65.0833641,49.9310347 L63.5021326,49.9310347 L63.5021326,41.835378 L65.1983063,41.835378 Z M65.1858801,45.1562748 C65.9594099,45.1562748 66.1628886,44.7570837 66.1628886,44.0208325 C66.1628886,43.3032206 65.9019388,42.9257753 65.1408352,42.9257753 L64.6624273,42.9257753 L64.6624273,45.1562748 L65.1858801,45.1562748 Z M65.162581,48.7707401 C66.0945446,48.7707401 66.1628886,48.2022423 66.1628886,47.4069667 C66.1628886,46.6008183 66.0153277,46.1798814 65.173454,46.1798814 L64.6624273,46.1798814 L64.6624273,48.7707401 L65.162581,48.7707401 Z M70.3356001,49.9313454 L70.3356001,41.8356886 L73.7916316,41.8356886 L73.7916316,42.926086 L71.4958947,42.926086 L71.4958947,45.3041463 L73.4980631,45.3041463 L73.4980631,46.3960969 L71.4958947,46.3960969 L71.4958947,48.7710507 L73.7916316,48.7710507 L73.7916316,49.9313454 L70.3356001,49.9313454 Z M80.6311568,44.2126617 C80.6311568,45.1446252 80.370207,45.8265119 79.6324025,46.2381291 L80.8812337,49.9318113 L79.6525951,49.9318113 L78.5715173,46.4742265 L77.880311,46.4742265 L77.880311,49.9318113 L76.7200164,49.9318113 L76.7200164,41.8361546 L78.5839435,41.8361546 C79.960143,41.8361546 80.6311568,42.6438563 80.6311568,44.2126617 Z M78.5388986,45.4506199 C79.3466004,45.4506199 79.4724154,44.995511 79.4724154,44.1893626 C79.4724154,43.3692346 79.3341742,42.926552 78.4814275,42.926552 L77.880311,42.926552 L77.880311,45.4506199 L78.5388986,45.4506199 Z M83.2919127,42.926552 L83.2919127,41.8361546 L87.1362624,41.8361546 L87.1362624,42.926552 L85.7942349,42.926552 L85.7942349,49.9318113 L84.6339402,49.9318113 L84.6339402,42.926552 L83.2919127,42.926552 Z" id="icLogo"></path>
            </g>
        </g>
    </g>
</svg>